<svg width="68" height="81" viewBox="0 0 68 81" fill="none" xmlns="http://www.w3.org/2000/svg">
<path d="M67.1079 63.1644L66.8383 63.4842C57.9623 74.1359 46.1393 80.0019 33.554 80.0019C20.9668 80.0019 9.14567 74.1378 0.267733 63.4842L0 63.1644L0.0632145 62.7461C1.77745 51.5646 7.61922 42.5844 16.512 37.451L17.1442 37.0865L17.648 37.6146C21.8481 42.0191 27.4965 44.4455 33.5521 44.4455C39.6077 44.4455 45.2561 42.0173 49.4562 37.6146L49.96 37.0865L50.5922 37.451C59.485 42.5862 65.3268 51.5664 67.0429 62.7461L67.1079 63.1644ZM33.554 39.9517C44.5682 39.9517 53.5298 30.9901 53.5298 19.9758C53.5298 8.96161 44.5682 0 33.554 0C22.5397 0 13.5781 8.96161 13.5781 19.9758C13.5781 30.9901 22.5397 39.9517 33.554 39.9517ZM58.3453 59.2135C58.3453 57.1609 56.6794 55.495 54.6268 55.495H38.5126C36.46 55.495 34.7941 57.1609 34.7941 59.2135C34.7941 61.2661 36.46 62.932 38.5126 62.932H54.6268C56.6794 62.932 58.3453 61.2661 58.3453 59.2135Z" fill="#F5F7FC"/>
</svg>
