<svg width="50" height="50" viewBox="0 0 50 50" fill="none" xmlns="http://www.w3.org/2000/svg">
<path d="M50 25.07C50 17.8041 44.1313 11.9115 36.8766 11.8601V11.8564H13.1246V11.8601C5.8687 11.9103 0 17.8041 0 25.07C0 25.2444 0.018814 25.4112 0.0263396 25.5855C0.0150512 25.7574 0 25.9242 0 26.0998V36.011C0 40.5038 3.64238 44.1449 8.13516 44.1449C11.9469 44.1449 15.1377 41.5197 16.0195 37.9814C19.9528 37.1298 23.2252 34.5297 24.9987 31.0353C26.7735 34.5297 30.0447 37.1298 33.978 37.9814C34.8598 41.5197 38.0519 44.1449 41.8623 44.1449C46.3564 44.1449 49.9975 40.5038 49.9975 36.011V26.0998C49.9975 25.9254 49.9812 25.7574 49.9712 25.5855C49.9799 25.415 50 25.2431 50 25.07ZM20.7919 27.2224H15.3672V32.6458H11.0651V27.2224H5.64168V22.9202H11.0651V17.4968H15.3672V22.9202H20.7907L20.7919 27.2224ZM36.7826 15.9553C38.4846 15.9553 39.8681 17.3375 39.8681 19.0395C39.8681 20.7428 38.4846 22.1263 36.7826 22.1263C35.0805 22.1263 33.6971 20.7428 33.6971 19.0395C33.6971 17.3375 35.078 15.9553 36.7826 15.9553ZM30.7496 28.158C29.0488 28.158 27.6653 26.7733 27.6653 25.0713C27.6653 23.3693 29.0488 21.9858 30.7496 21.9858C32.4528 21.9858 33.8363 23.3693 33.8363 25.0713C33.8363 26.7733 32.4528 28.158 30.7496 28.158ZM36.7826 34.1898C35.0805 34.1898 33.6971 32.8051 33.6971 31.1031C33.6971 29.401 35.0805 28.0188 36.7826 28.0188C38.4846 28.0188 39.8681 29.401 39.8681 31.1031C39.8681 32.8051 38.4859 34.1898 36.7826 34.1898ZM42.8143 28.158C41.1123 28.158 39.7276 26.7733 39.7276 25.0713C39.7276 23.3693 41.1123 21.9858 42.8143 21.9858C44.5164 21.9858 45.8986 23.3693 45.8986 25.0713C45.8986 26.7733 44.5176 28.158 42.8143 28.158Z" fill="#333333"/>
</svg>
