<svg width="50" height="44" viewBox="0 0 50 44" fill="none" xmlns="http://www.w3.org/2000/svg">
<g clip-path="url(#clip0_10_64)">
<path d="M41.0606 5.84415L42.2078 0.108215H7.79221L8.93939 5.84415H0V7.987C0 12.6299 1.49351 17.0238 4.31818 20.6926C6.92641 24.0801 10.5736 26.6234 14.6429 27.8896C16.5801 30.4978 19.4913 32.5108 22.8355 33.1385V37.987H15.1515V43.3983H34.7403V37.987H27.1645V33.1277C30.5195 32.5108 33.4307 30.487 35.368 27.8788C39.4264 26.6125 43.0736 24.0801 45.6818 20.6926C48.5065 17.0238 50 12.6299 50 7.987V5.84415H41.0606ZM4.4697 10.1732H9.79437L12.1753 22.0563C8.00866 19.4805 5.12987 15.0433 4.4697 10.1732ZM25 30.0866V26.8398C28.0303 26.8398 30.6818 24.1775 31.2771 21.6991L34.4372 22.4459C33.5498 26.2013 29.7727 30.0866 25 30.0866ZM37.8247 22.0563L40.1948 10.1732H45.5195C44.8701 15.0433 41.9913 19.4805 37.8247 22.0563Z" fill="#333333"/>
</g>
<defs>
<clipPath id="clip0_10_64">
<rect width="50" height="43.3983" fill="white"/>
</clipPath>
</defs>
</svg>
