<svg width="50" height="50" viewBox="0 0 50 50" fill="none" xmlns="http://www.w3.org/2000/svg">
<path d="M45.4545 41.2338V8.76623C45.4545 5.18051 42.548 2.27272 38.961 2.27272H6.49351C2.90649 2.27272 0 5.18051 0 8.76623V41.2338C0 44.8182 2.90649 47.7273 6.49351 47.7273H38.961C42.548 47.7273 45.4545 44.8208 45.4545 41.2338ZM9.41558 10.3896H22.4519C23.5273 10.3896 24.4 11.261 24.4 12.3377C24.4 13.4143 23.5273 14.2857 22.4519 14.2857H9.41558C8.34026 14.2857 7.46753 13.4143 7.46753 12.3377C7.46753 11.261 8.34026 10.3896 9.41558 10.3896ZM9.41558 18.8312H22.4026C23.4779 18.8312 24.3506 19.7026 24.3506 20.7792C24.3506 21.8558 23.4779 22.7273 22.4026 22.7273H9.41558C8.34026 22.7273 7.46753 21.8558 7.46753 20.7792C7.46753 19.7026 8.34026 18.8312 9.41558 18.8312ZM36.039 39.6104H9.41558C8.34026 39.6104 7.46753 38.7377 7.46753 37.6623C7.46753 36.5844 8.34026 35.7143 9.41558 35.7143H36.039C37.1143 35.7143 37.987 36.5844 37.987 37.6623C37.987 38.7377 37.1143 39.6104 36.039 39.6104ZM36.039 31.1688H9.41558C8.34026 31.1688 7.46753 30.2961 7.46753 29.2208C7.46753 28.1429 8.34026 27.2727 9.41558 27.2727H36.039C37.1143 27.2727 37.987 28.1429 37.987 29.2208C37.987 30.2961 37.1143 31.1688 36.039 31.1688ZM40.6974 15.2454L34.3351 21.6104C34.0377 21.9091 33.6468 22.0584 33.2545 22.0584C32.8636 22.0584 32.4714 21.9091 32.174 21.6117L28.2325 17.6779C27.6364 17.0818 27.6338 16.113 28.2325 15.5143C28.8299 14.9169 29.7974 14.9169 30.3935 15.513L33.2519 18.3662L38.5338 13.0818C39.1312 12.4844 40.0987 12.4844 40.6974 13.0818C41.2948 13.6792 41.2948 14.6454 40.6974 15.2454ZM50 13.2649V41.9844C50 45.1545 47.4299 47.7273 44.2558 47.7273H41.0182C44.6052 47.7273 47.5117 44.8208 47.5117 41.2338V8.76623C47.5117 8.68181 47.4883 8.60259 47.4857 8.51817C49.0026 9.55064 50 11.2909 50 13.2649Z" fill="#333333"/>
</svg>
