<svg width="50" height="50" viewBox="0 0 50 50" fill="none" xmlns="http://www.w3.org/2000/svg">
<g clip-path="url(#clip0_4_23)">
<path d="M50 23.2692C50 24.669 48.8652 25.8051 47.4641 25.8051C47.459 25.8051 47.4489 25.8051 47.4387 25.8051H42.6142V39.2922C42.6142 40.692 41.4782 41.8281 40.0783 41.8281H31.7505C30.3507 41.8281 29.2146 40.692 29.2146 39.2922V32.1435C29.2146 29.8131 27.3178 27.9175 24.9886 27.9175C22.6581 27.9175 20.7613 29.8131 20.7613 32.1435V39.2922C20.7613 40.692 19.6252 41.8281 18.2254 41.8281H9.89627C8.49646 41.8281 7.36038 40.692 7.36038 39.2922V25.8051H2.53587C1.46573 25.8051 0.509698 25.1356 0.149602 24.1289C-0.211761 23.1209 0.0950808 21.9962 0.917975 21.314L23.3707 2.75392C24.309 1.9792 25.6657 1.9792 26.6027 2.75392L48.8487 21.1416C49.541 21.5955 50 22.3791 50 23.2692Z" fill="#333333"/>
</g>
<defs>
<clipPath id="clip0_4_23">
<rect width="50" height="50" fill="white"/>
</clipPath>
</defs>
</svg>
