<svg width="50" height="50" viewBox="0 0 50 50" fill="none" xmlns="http://www.w3.org/2000/svg">
<g clip-path="url(#clip0_4_95)">
<path d="M42.3271 9.10416C39.0855 7.61632 35.6646 6.55538 32.15 5.94791C32.118 5.94167 32.0847 5.94577 32.0552 5.95962C32.0256 5.97348 32.0012 5.99637 31.9854 6.02499C31.5479 6.80624 31.0604 7.82499 30.7188 8.62916C26.9301 8.05371 23.0762 8.05371 19.2875 8.62916C18.9073 7.73812 18.4782 6.86874 18.0021 6.02499C17.9857 5.99701 17.9612 5.97466 17.9318 5.9609C17.9024 5.94714 17.8695 5.94261 17.8375 5.94791C14.3226 6.55412 10.9015 7.61511 7.66044 9.10416C7.633 9.11567 7.60974 9.1353 7.59377 9.16041C1.11044 18.8458 -0.666642 28.2917 0.206275 37.6187C0.208395 37.6419 0.215217 37.6644 0.226321 37.6848C0.237426 37.7052 0.252581 37.7231 0.270858 37.7375C4.04501 40.5338 8.26692 42.6683 12.7563 44.05C12.7879 44.0592 12.8216 44.0585 12.8529 44.0481C12.8841 44.0376 12.9115 44.018 12.9313 43.9917C13.8964 42.6802 14.7507 41.2907 15.4854 39.8375C15.4957 39.8176 15.5016 39.7958 15.5028 39.7734C15.504 39.7511 15.5004 39.7287 15.4923 39.7079C15.4843 39.687 15.4719 39.6681 15.456 39.6524C15.44 39.6367 15.421 39.6245 15.4 39.6167C14.053 39.1012 12.7489 38.4798 11.5 37.7583C11.4771 37.7451 11.4579 37.7264 11.4439 37.7039C11.43 37.6814 11.4219 37.6559 11.4202 37.6295C11.4186 37.6031 11.4235 37.5767 11.4345 37.5526C11.4455 37.5286 11.4623 37.5076 11.4834 37.4917C11.7464 37.2949 12.0048 37.0921 12.2584 36.8833C12.2805 36.8653 12.3073 36.8539 12.3356 36.8502C12.3639 36.8465 12.3927 36.8508 12.4188 36.8625C20.6021 40.5979 29.4604 40.5979 37.5479 36.8625C37.5742 36.8503 37.6034 36.8459 37.6322 36.8495C37.6609 36.8532 37.688 36.8649 37.7104 36.8833C37.9604 37.0875 38.2229 37.2958 38.4875 37.4917C38.5084 37.5074 38.525 37.528 38.5361 37.5516C38.5472 37.5752 38.5523 37.6012 38.5511 37.6272C38.5499 37.6533 38.5423 37.6787 38.529 37.7012C38.5158 37.7236 38.4972 37.7425 38.475 37.7562C37.229 38.4845 35.9236 39.1061 34.5729 39.6146C34.5519 39.6226 34.5328 39.635 34.5169 39.6509C34.501 39.6669 34.4886 39.686 34.4805 39.707C34.4725 39.728 34.4689 39.7505 34.4701 39.773C34.4713 39.7955 34.4773 39.8174 34.4875 39.8375C35.2375 41.2917 36.0959 42.675 37.0396 43.9896C37.059 44.0164 37.0863 44.0364 37.1177 44.0469C37.1491 44.0573 37.183 44.0577 37.2146 44.0479C41.7115 42.6705 45.9402 40.5357 49.7188 37.7354C49.7372 37.7224 49.7526 37.7056 49.7641 37.6863C49.7756 37.6669 49.7828 37.6453 49.7854 37.6229C50.8271 26.8375 48.0396 17.4687 42.3917 9.16458C42.3785 9.13657 42.3555 9.11435 42.3271 9.10208V9.10416ZM16.7084 31.9375C14.2438 31.9375 12.2146 29.6771 12.2146 26.8979C12.2146 24.1208 14.2063 21.8583 16.7084 21.8583C19.2292 21.8583 21.2417 24.1417 21.2021 26.9C21.2021 29.6771 19.2104 31.9375 16.7084 31.9375ZM33.3229 31.9375C30.8584 31.9375 28.8292 29.6771 28.8292 26.8979C28.8292 24.1208 30.8188 21.8583 33.3229 21.8583C35.8438 21.8583 37.8563 24.1417 37.8167 26.9C37.8167 29.6771 35.8459 31.9375 33.3229 31.9375Z" fill="#333333"/>
</g>
<defs>
<clipPath id="clip0_4_95">
<rect width="50" height="50" fill="white"/>
</clipPath>
</defs>
</svg>
