<svg width="100" height="141" viewBox="0 0 100 141" fill="none" xmlns="http://www.w3.org/2000/svg">
<g clip-path="url(#clip0_10_67)">
<path d="M7.58497 35.8988C15.6362 29.2537 35.105 30.725 35.105 30.725C26.0312 26.445 25.4775 19.7962 25.4775 19.7962C25.4775 19.7962 24.3275 13.9175 20.1525 16.0475C17.6175 17.0538 5.68872 22.8875 1.69122 27.4975C0.919972 28.3862 0.456222 29.5037 0.271222 30.6663C-1.25378 40.2225 4.17872 46.1225 4.17872 46.1225C5.62747 34.4075 23.5612 36.2713 23.5612 36.2713C23.5612 36.2713 24.9487 37.7025 25.9187 37.7025C26.8875 37.7025 28.3325 36.24 28.3325 36.24H39.2375C22.7925 28.9975 7.58497 35.8988 7.58497 35.8988ZM21.6425 18.9438C19.7675 23.4588 22.565 24.1262 22.565 24.1262C22.565 24.1262 23.0625 25.4462 21.5137 25.4613C19.9662 25.475 17.3962 23.615 17.3675 22.7062C17.34 21.7975 21.6425 18.9438 21.6425 18.9438Z" fill="#333333"/>
<path d="M97.0662 73.545C97.0662 73.545 111.486 29.2113 76.3837 7.74001C76.3837 7.74001 81.4312 7.88876 83.1362 4.56626C83.1362 4.56626 73.4874 3.56501 67.395 1.73376C61.3037 -0.0987411 38.2712 -4.18749 23.39 13.7613C23.39 13.7613 26.2862 14.1025 26.7975 18.5325C27.3087 22.9625 33.67 31.3588 47.8137 30.8525C47.8137 30.8525 47.43 28.8913 45.4987 27.0913C45.4987 27.0913 98.0037 16.1813 88.83 60.3675L97.0662 73.545ZM56.3962 12.8088C55.4975 12.8963 54.7025 13.3988 54.2125 14.1575C53.2012 15.725 51.2175 18.425 49.4325 18.645C42.5025 19.27 51.3075 22.5363 51.3075 22.5363C41.3675 24.2975 31.4837 17.14 31.4837 17.14C36.1462 16.175 40.6837 14.3763 43.1125 10.7638C43.4925 10.1988 44.0187 9.73626 44.6187 9.41376C52.555 5.14751 63.7737 13.05 63.7737 13.05C60.1612 12.6138 57.7775 12.675 56.3962 12.8088Z" fill="#333333"/>
<path d="M40.8025 15.695C40.8025 15.695 40.2812 15.0663 39.6525 15.6738C39.0237 16.2813 39.9475 18.3613 43.2162 18.1625C51.4275 17.31 47.3312 10.7213 47.3312 10.7213L45.23 12.44C45.23 12.44 46.0062 13.35 45.2587 14.8713C45.22 14.9488 45.1425 15.0038 45.0562 15.01C44.79 15.0288 44.175 15.1713 43.7375 16.0388C43.5487 16.415 43.1687 16.6538 42.7487 16.6338C42.06 16.6025 41.11 16.4213 40.8025 15.695Z" fill="#333333"/>
<path d="M46.905 98.0525C46.905 98.0525 59.77 88.7938 59.3012 71.4138C58.8325 54.0338 53.9762 49.5738 49.2475 47.0188C49.2475 47.0188 53.72 64.825 52.4 73.8988C52.4 73.8988 54.5512 70.9813 54.9562 67.935C54.9562 67.9338 56.6175 83.3975 46.905 98.0525Z" fill="#333333"/>
<path fill-rule="evenodd" clip-rule="evenodd" d="M54.6075 140.226C47.14 138.074 12.1275 109.94 9.40497 52.7488C16.5037 52.3338 24.1987 51.1588 31.4087 49.1588H77.8075C85.0175 51.16 92.7125 52.3338 99.8112 52.7488C97.0887 109.94 62.0762 138.074 54.6075 140.226Z" fill="#333333"/>
<path fill-rule="evenodd" clip-rule="evenodd" d="M54.6074 135.221C48.7624 133.164 21.2437 106.139 19.3799 51.17C23.4174 50.5563 27.4837 49.705 31.4087 48.6088H77.8074C81.7312 49.705 85.8662 50.5113 89.9037 51.125C88.0399 106.095 60.4537 133.163 54.6074 135.221Z" fill="white"/>
<path fill-rule="evenodd" clip-rule="evenodd" d="M54.6075 131.244C40.8937 121.524 29.0387 83.1163 27.205 68.8763C26.46 63.09 25.975 52.1725 25.8275 45.55C37.3025 43.0525 48.1537 38.7363 54.6087 32.3688C61.0625 38.7363 71.9137 43.0525 83.3912 45.55C83.2425 52.1725 82.7575 63.09 82.0137 68.8763C80.1775 83.115 68.595 121.261 54.6075 131.244Z" fill="#0080C6"/>
<path fill-rule="evenodd" clip-rule="evenodd" d="M54.6075 111.784L56.3375 115.766L60.6612 116.183L57.4087 119.059L58.3487 123.299L54.6075 121.093L50.8662 123.299L51.8075 119.059L48.5537 116.183L52.8762 115.766L54.6075 111.784Z" fill="#FFC20E"/>
<path fill-rule="evenodd" clip-rule="evenodd" d="M54.6075 108.581C69.735 108.581 82.075 96.2425 82.075 81.115C82.075 65.9863 69.7362 53.6475 54.6075 53.6475C39.4787 53.6475 27.1412 65.9863 27.1412 81.115C27.1412 96.2425 39.48 108.581 54.6075 108.581Z" fill="white"/>
<path fill-rule="evenodd" clip-rule="evenodd" d="M54.6075 102.786C69.735 102.786 82.075 90.4475 82.075 75.3188C82.075 60.1913 69.7362 47.8525 54.6075 47.8525C39.4787 47.8525 27.1412 60.1913 27.1412 75.3188C27.1412 90.4475 39.48 102.786 54.6075 102.786Z" fill="#666666"/>
<path fill-rule="evenodd" clip-rule="evenodd" d="M54.6075 99.3213C69.4287 99.3213 81.5175 87.2325 81.5175 72.4113C81.5175 57.59 69.4287 45.5025 54.6075 45.5025C39.7862 45.5025 27.6987 57.5913 27.6987 72.4113C27.6987 87.2337 39.7875 99.3213 54.6075 99.3213Z" fill="white"/>
<path fill-rule="evenodd" clip-rule="evenodd" d="M70.9762 51.055C77.3837 55.9738 81.5187 63.7113 81.5187 72.4125C81.5187 87.2713 69.4687 99.3213 54.6087 99.3213C45.525 99.3213 37.4912 94.8163 32.6187 87.92C37.1537 91.4013 42.8275 93.4738 48.9862 93.4738C63.845 93.4738 75.895 81.4238 75.895 66.565C75.8937 60.7888 74.0725 55.4388 70.9762 51.055Z" fill="#DADADA"/>
<path fill-rule="evenodd" clip-rule="evenodd" d="M77.8187 57.7875C75.9887 54.8875 73.63 52.355 70.8775 50.325C69.9525 49.6425 68.9812 49.0163 67.9725 48.4513C65.1925 46.8975 62.115 45.8125 58.8475 45.305C57.465 45.0913 56.0512 44.9788 54.6087 44.9788C53.64 44.9788 52.6825 45.03 51.74 45.1275C50.1987 45.2875 48.6962 45.575 47.24 45.98C46.8462 46.09 46.455 46.2088 46.0687 46.3363C42.5012 47.505 39.2575 49.3838 36.5025 51.8063C34.2112 53.82 32.26 56.2113 30.7425 58.8813C28.4725 62.875 27.175 67.4925 27.175 72.4125C27.175 77.3325 28.4725 81.9488 30.7412 85.9413C32.2587 88.6113 34.21 91.0013 36.5012 93.0175C39.2562 95.4413 42.5012 97.32 46.0675 98.4875C46.4537 98.6138 46.845 98.7325 47.2387 98.8425C48.6937 99.2475 50.1962 99.5363 51.7387 99.6963C52.6812 99.795 53.6387 99.845 54.6075 99.845C56.05 99.845 57.4637 99.7325 58.8462 99.5188C62.1137 99.0113 65.1912 97.9263 67.9712 96.3713C68.9812 95.8063 69.9512 95.1813 70.8762 94.4975C73.6287 92.4663 75.9875 89.9338 77.8175 87.035C80.4912 82.8025 82.0412 77.7875 82.0412 72.4125C82.0425 67.0363 80.4912 62.02 77.8187 57.7875ZM67.9712 50.295C68.9875 50.91 69.9587 51.595 70.8762 52.34C71.5737 52.9063 72.2425 53.5088 72.8775 54.1438C73.4475 54.7138 73.9937 55.3125 74.5087 55.935C74.4275 55.9063 74.3475 55.885 74.2687 55.8675C73.1725 54.5713 72.0487 53.4688 70.8762 52.5388C70.4775 52.2225 70.075 51.9275 69.6637 51.65C69.1125 51.2775 68.5475 50.94 67.9712 50.635C66.7862 50.01 65.5462 49.5238 64.2312 49.16C63.8087 48.6725 63.3062 48.25 62.7337 47.8788C64.5812 48.49 66.3362 49.3038 67.9712 50.295ZM58.8462 50.83C60.0037 50.1 61.945 49.5388 63.7725 49.4738C65.2612 49.8575 66.6525 50.395 67.9725 51.1138C68.4687 51.3838 68.9537 51.6788 69.43 52C69.9212 52.3313 70.4037 52.69 70.8787 53.08C72.2312 54.1888 73.5225 55.54 74.7812 57.1675C75.8175 59.2138 76.1325 61.7738 75.5675 63.5075C74.025 63.94 72.4587 64.3413 70.8787 64.7338C70.0687 64.935 69.2537 65.1338 68.4375 65.3325C68.2862 65.1675 68.13 65.005 67.9737 64.8438C65.7312 62.565 62.925 60.755 59.9787 59.675C59.8362 58.1025 59.6075 56.4975 59.27 54.995C59.1437 54.4363 59.0037 53.89 58.8475 53.3663C58.6387 52.6688 58.4037 52.0088 58.1375 51.4025C58.315 51.2063 58.5562 51.0125 58.8462 50.83ZM51.74 49.67C54.0212 49.89 56.1087 50.4588 57.7012 51.46C58.1725 52.51 58.55 53.735 58.8475 55.0413L58.8575 55.0888C59.19 56.5638 59.4162 58.1413 59.555 59.69C59.3212 59.805 59.085 59.9263 58.8462 60.0563C56.2787 61.45 53.515 63.6375 51.74 65.475C51.6525 65.5663 51.5675 65.6563 51.4837 65.745C50.0837 65.3375 48.6687 64.9988 47.24 64.7225C46.9475 64.665 46.655 64.6125 46.3612 64.5613L46.0687 64.51C44.45 64.235 42.8125 64.035 41.1587 63.895C40.1162 61.4888 39.725 59.0088 39.6875 56.35C40.72 54.9225 41.9737 53.6163 43.4175 52.4875C44.2412 51.8438 45.1275 51.255 46.0687 50.7325C46.45 50.5213 46.8412 50.3213 47.24 50.1325C47.66 49.9338 48.09 49.7488 48.5287 49.5763C49.62 49.5413 50.7 49.57 51.74 49.67ZM54.7937 75.9638C53.9 77.4688 52.895 78.9438 51.8125 80.3988L51.74 80.4963C50.6675 81.9325 49.5225 83.345 48.34 84.745C47.97 84.7538 47.6037 84.755 47.2412 84.7475C46.8475 84.7388 46.4575 84.7225 46.07 84.6963C43.3575 84.5125 40.8162 83.8725 38.3887 82.8525C37.6487 81.5538 37.0225 80.22 36.5037 78.8525C36.3575 78.4675 36.2187 78.08 36.0887 77.69C35.5375 76.0275 35.1362 74.3138 34.8737 72.5563C35.3487 71.3675 35.8975 70.2788 36.5037 69.2913C37.8025 67.175 39.3675 65.5175 41.055 64.3113C42.7425 64.4513 44.4175 64.6563 46.0712 64.94L46.2912 64.9788C46.6087 65.0338 46.9275 65.0925 47.2425 65.1538C48.5825 65.415 49.9062 65.73 51.2137 66.1038C51.3875 66.6288 51.5637 67.1525 51.7425 67.6775C52.6837 70.4388 53.705 73.2013 54.7937 75.9638ZM36.3387 54.1438L36.5012 53.9825C39.185 51.3463 42.4425 49.29 46.0675 48.02C46.4537 47.885 46.845 47.7575 47.2387 47.6413C47.69 47.5075 48.145 47.3863 48.6062 47.2763C48.0537 47.8063 47.9512 48.5775 47.9037 49.3775C47.68 49.4725 47.4587 49.5688 47.24 49.67C46.8412 49.8538 46.45 50.05 46.0687 50.255C45.0312 50.815 44.0575 51.4525 43.1587 52.1575C41.6775 53.315 40.3912 54.655 39.335 56.12C38.33 56.3163 37.3775 56.5875 36.5025 56.9413C35.1075 57.5063 33.9075 58.2838 33.0062 59.3038C32.9712 59.095 32.9462 58.8825 32.9275 58.6663C32.92 58.5725 32.9137 58.48 32.9087 58.385C33.9025 56.8513 35.0525 55.4288 36.3387 54.1438ZM30.7412 62.5013C31.25 61.2775 31.8512 60.1 32.535 58.98C32.5637 59.2363 32.6037 59.4875 32.6575 59.7313L32.5587 59.865C31.8212 60.8963 31.195 62.185 30.74 63.5713C30.1412 65.3963 29.8387 67.39 29.9712 69.185C29.5525 69.6175 29.1687 70.14 28.8237 70.7263C29.0112 67.8275 29.6762 65.06 30.7412 62.5013ZM34.7287 88.7925C34.6712 88.765 34.6162 88.7375 34.5587 88.7088C32.9962 86.79 31.705 84.6413 30.74 82.3225C29.47 79.27 28.7687 75.9238 28.7687 72.4125C28.7687 72.1725 28.7725 71.9338 28.7787 71.695C28.885 71.4788 28.995 71.27 29.1112 71.0688V71.0675C29.4137 70.5375 29.745 70.0613 30.1062 69.6575C30.3075 69.8813 30.52 70.0913 30.74 70.29C31.7987 71.245 33.0612 71.9263 34.4237 72.4163C34.6887 74.2638 35.105 76.0688 35.6875 77.8213C35.9287 78.5513 36.2 79.2713 36.5012 79.9813C36.9712 81.095 37.5137 82.1863 38.1312 83.2525C37.3637 85.2413 36.85 87.2738 36.9562 89.4088C36.8037 89.3975 36.6525 89.3788 36.5 89.3538C35.9 89.2575 35.3012 89.0625 34.7287 88.7925ZM46.0687 96.8038C42.4425 95.5338 39.1862 93.4788 36.5025 90.8425L36.34 90.6813C35.9375 90.2788 35.55 89.8625 35.175 89.435C35.61 89.5963 36.055 89.7138 36.5025 89.7813C36.6887 89.8088 36.875 89.8288 37.0612 89.8388C38.0675 91.9675 42.5962 95.0813 45.5912 95.6163C45.6937 96.0425 45.8525 96.4275 46.07 96.7663L46.1012 96.8163L46.0687 96.8038ZM65.62 95.7913C63.5037 96.79 61.2287 97.51 58.8462 97.9038C57.4662 98.1325 56.0512 98.2513 54.6075 98.2513C53.6387 98.2513 52.68 98.1963 51.7387 98.0925C50.1937 97.9213 48.69 97.6138 47.2387 97.1838C47.1112 97.145 46.9837 97.1075 46.8575 97.0675L46.8325 97.0438C46.4775 96.7025 46.225 96.2713 46.0662 95.7675C46.0562 95.7325 46.045 95.6988 46.035 95.6638L46.0662 95.6625C46.4675 95.6425 46.8575 95.6013 47.2375 95.54C48.9312 95.2688 50.415 94.6013 51.7375 93.6225C52.0387 93.3988 52.3312 93.1613 52.6175 92.9075C53.8587 93.4125 55.6137 93.6425 57.5112 93.625C57.9487 93.6213 58.395 93.6038 58.8437 93.5738C60.505 93.4625 62.215 93.1775 63.745 92.7325C64.4112 93.6113 65.1587 94.3838 66.12 94.8938C65.9912 95.21 65.825 95.51 65.62 95.7913ZM67.9712 94.5263C67.4325 94.8525 66.88 95.1613 66.3162 95.4488C66.4062 95.2763 66.4887 95.0975 66.5575 94.9138C67.025 94.8088 67.495 94.67 67.9712 94.485C68.0337 94.4613 68.0987 94.435 68.1612 94.41C68.0987 94.45 68.0337 94.4888 67.9712 94.5263ZM67.9712 88.2475C66.855 89.9013 65.5512 91.2925 64.3562 92.0963C62.6925 92.6613 60.7375 93.02 58.8462 93.1488C58.395 93.1788 57.9487 93.1975 57.51 93.2013C55.6112 93.2188 53.8725 92.9863 52.6862 92.4763C52.3612 92.0688 52.045 91.65 51.7387 91.2188C50.4337 89.3775 49.325 87.3138 48.685 84.9838C49.7437 83.73 50.77 82.4688 51.7387 81.195C51.8775 81.0125 52.015 80.8313 52.15 80.6488C53.2062 79.2288 54.1912 77.7875 55.0725 76.3163C56.315 76.4175 57.5775 76.47 58.8462 76.48C61.0662 76.4975 63.3012 76.3863 65.4825 76.1763C66.3925 77.26 67.2275 78.4375 67.9712 79.7225C68.0387 79.8413 68.1075 79.9588 68.1737 80.0788C68.8837 81.355 69.5062 82.7375 70.0262 84.2438C69.5287 85.6363 68.8025 87.015 67.9712 88.2475ZM70.8775 84.2088C70.7387 84.2138 70.5987 84.2163 70.4612 84.2163C69.925 82.6438 69.2812 81.2025 68.5425 79.875C68.3587 79.5438 68.1675 79.22 67.9725 78.9013C67.3437 77.8813 66.6562 76.93 65.9175 76.0413C66.8175 74.0763 67.505 72.1313 67.9725 70.1213C68.3025 68.6988 68.5237 67.2438 68.63 65.7213C69.3812 65.5388 70.1325 65.355 70.8775 65.17C72.4725 64.775 74.0537 64.37 75.6125 63.935C76.325 64.4263 77.115 65.3688 77.8187 66.6138C78.4687 67.7638 79.045 69.1738 79.42 70.7238C79.5637 73.065 79.3575 75.2613 78.8062 77.3138C78.5512 78.2638 78.2225 79.1813 77.8187 80.07C77.44 80.9075 76.9962 81.72 76.4875 82.505C74.655 83.5638 72.6662 84.1388 70.8775 84.2088ZM76.1775 86.64C76.7387 85.2875 76.9712 83.9825 76.8475 82.7263C77.2025 82.1788 77.5262 81.6163 77.82 81.0425C78.4112 79.8875 78.8775 78.6813 79.2137 77.4225C79.7262 75.515 79.9462 73.4863 79.8725 71.3363C80.0325 71.1625 80.2325 70.8988 80.38 70.5525C80.4237 71.1675 80.4475 71.7888 80.4475 72.4138C80.4475 76.4888 79.5012 80.3425 77.8187 83.7713C77.3312 84.7638 76.7837 85.7225 76.1775 86.64Z" fill="#333333"/>
</g>
<defs>
<clipPath id="clip0_10_67">
<rect width="100" height="140.226" fill="white"/>
</clipPath>
</defs>
</svg>
